#!OML:ASF Y:\EmotionMaleHayes\Project 1\Capture day 1\Session 1\Male1.ASF
:FULLY-SPECIFIED
:DEGREES
488
root -0.305219 16.7084 1.07122 338.569 83.2642 340.777
lowerback 4.90061 4.57989 1.45637
upperback -0.204456 6.16473 -1.08582
thorax -2.67355 3.04805 -2.35361
lowerneck -23.3481 -0.233019 1.53677
upperneck 13.3359 -1.03575 1.2633
head 7.92001 -0.266862 0.0423336
rclavicle -3.74663e-014 9.54166e-015
rhumerus -31.6932 29.5607 -96.659
rradius 54.8821
rwrist -7.15706
rhand -8.2119 -32.2644
rfingers 7.12502
rthumb 17.7049 -61.4783
lclavicle -3.74663e-014 9.54166e-015
lhumerus -47.7341 -4.64933 85.3108
lradius 23.9455
lwrist -13.9459
lhand -11.301 -24.0867
lfingers 7.12502
lthumb 14.7305 5.36988
rfemur 25.4282 4.46913 22.4098
rtibia 17.3994
rfoot -14.107 -4.78027
rtoes -0.556519
lfemur -13.3602 4.7883 -12.3873
ltibia 8.05156
lfoot 2.41066 6.66419
ltoes 17.457
489
root -0.130661 16.7495 1.03091 341.967 84.1416 344.522
lowerback 4.89983 4.40623 0.911931
upperback -0.0800679 5.90022 -1.23583
thorax -2.59631 2.92564 -2.18492
lowerneck -23.3811 -0.308409 1.37704
upperneck 13.4512 -1.1079 1.35868
head 7.96579 -0.298173 0.0903619
rclavicle 1.71848e-014 -1.59028e-015
rhumerus -32.3829 29.1721 -96.9188
rradius 54.2627
rwrist -7.20237
rhand -8.35654 -32.1242
rfingers 7.12502
rthumb 17.5658 -61.3506
lclavicle 1.71848e-014 -1.59028e-015
lhumerus -47.2402 -4.78649 85.3487
lradius 23.4455
lwrist -14.7836
lhand -11.4968 -24.1108
lfingers 7.12502
lthumb 14.5418 5.35947
rfemur 25.8119 3.92064 21.3457
rtibia 18.0744
rfoot -12.3496 -5.0657
rtoes 2.19727
lfemur -12.46 4.16386 -13.6317
ltibia 7.96938
lfoot 2.37137 5.9819
ltoes 17.5205
490
root 0.0401437 16.7823 0.996278 344.321 84.5279 346.977
lowerback 4.79172 4.37294 0.671205
upperback -0.143116 5.83909 -1.37969
thorax -2.61236 2.89752 -2.18983
lowerneck -23.2543 -0.393482 1.43742
upperneck 13.6315 -1.24187 1.34588
head 8.0057 -0.358498 0.058477
rclavicle -6.26793e-014 8.74653e-015
rhumerus -33.1322 28.5149 -97.2825
rradius 53.615
rwrist -7.07756
rhand -8.35635 -32.0324
rfingers 7.12502
rthumb 17.5659 -61.2589
lclavicle -6.26793e-014 8.74653e-015
lhumerus -46.9199 -4.98586 85.2511
lradius 23.0503
lwrist -15.6804
lhand -11.4355 -24.0003
lfingers 7.12502
lthumb 14.6009 5.46573
rfemur 25.8155 3.82291 20.8445
rtibia 18.915
rfoot -10.7842 -5.33849
rtoes 5.53935
lfemur -11.7164 3.91787 -14.3567
ltibia 7.86949
lfoot 2.44245 5.73283
ltoes 17.5206
491
root 0.20764 16.8123 0.960405 345.009 84.7453 347.623
lowerback 4.56793 4.29027 0.625738
upperback -0.241316 5.72421 -1.44356
thorax -2.59092 2.84031 -2.20875
lowerneck -23.0919 -0.343415 1.60352
upperneck 13.7532 -1.21239 1.27054
head 8.01874 -0.343077 0.0103803
rclavicle -4.40432e-015 1.59028e-015
rhumerus -33.8266 28.0737 -97.6843
rradius 52.8442
rwrist -6.97877
rhand -8.63201 -31.862
rfingers 7.12502
rthumb 17.3006 -61.1119
lclavicle -4.40432e-015 1.59028e-015
lhumerus -46.5164 -4.93361 85.0604
lradius 22.6821
lwrist -16.5413
lhand -11.1286 -23.6687
lfingers 7.12502
lthumb 14.8966 5.77572
rfemur 25.5505 3.5667 20.4221
rtibia 19.8398
rfoot -9.18482 -5.50537
rtoes 6.869
lfemur -11.1532 3.70321 -14.7792
ltibia 7.84469
lfoot 2.40276 5.74236
ltoes 17.5471
492
root 0.370604 16.8449 0.921258 346.776 84.9072 349.403
lowerback 4.46114 4.20576 0.447671
upperback -0.300885 5.60178 -1.42847
thorax -2.61595 2.78101 -2.08218
lowerneck -23.1157 -0.322912 1.43817
upperneck 13.926 -1.15179 1.34987
head 8.08272 -0.313246 0.0715146
rclavicle 1.54679e-015 4.77083e-015
rhumerus -34.5575 27.916 -97.9666
rradius 52.0496
rwrist -6.90142
rhand -8.87819 -31.6598
rfingers 7.12502
rthumb 17.0637 -60.9304
lclavicle 1.54679e-015 4.77083e-015
lhumerus -46.0447 -4.65732 84.9576
lradius 22.3627
lwrist -17.3501
lhand -10.9476 -23.2821
lfingers 7.12502
lthumb 15.071 6.14926
rfemur 25.1557 3.38279 19.9254
rtibia 21.068
rfoot -7.57337 -5.99391
rtoes 8.40963
lfemur -10.519 3.68855 -15.295
ltibia 7.76748
lfoot 2.24316 5.57635
ltoes 17.7919
493
root 0.533249 16.8791 0.883162 350.203 84.9576 352.916
lowerback 4.46682 4.21252 0.165969
upperback -0.394821 5.59412 -1.47527
thorax -2.73846 2.77933 -1.98035
lowerneck -23.1521 -0.375617 1.34436
upperneck 14.2479 -1.20537 1.37057
head 8.19862 -0.338091 0.0860503
rclavicle -3.00538e-014 4.77083e-015
rhumerus -35.3222 27.5146 -98.2484
rradius 51.1974
rwrist -6.71277
rhand -8.904 -31.583
rfingers 7.12502
rthumb 17.0388 -60.8557
lclavicle -3.00538e-014 4.77083e-015
lhumerus -45.6738 -4.66107 84.9471
lradius 22.0904
lwrist -18.0703
lhand -10.892 -23.1326
lfingers 7.12502
lthumb 15.1245 6.29475
rfemur 24.7206 3.36149 19.3432
rtibia 22.4939
rfoot -6.14918 -6.4784
rtoes 10.4295
lfemur -9.66083 3.96373 -15.8966
ltibia 7.45564
lfoot 2.18139 5.22322
ltoes 17.8776
494
root 0.697949 16.9115 0.847293 353.663 85.0434 356.501
lowerback 4.33634 4.21642 -0.140694
upperback -0.399929 5.58358 -1.5298
thorax -2.69483 2.77906 -1.85621
lowerneck -23.1257 -0.38823 1.46674
upperneck 14.4898 -1.24041 1.23615
head 8.27469 -0.359892 0.0158299
rclavicle 3.31722e-015 1.03368e-014
rhumerus -35.8539 27.0583 -98.4321
rradius 50.2633
rwrist -6.53056
rhand -8.98037 -31.4964
rfingers 7.12502
rthumb 16.9653 -60.7755
lclavicle 3.31722e-015 1.03368e-014
lhumerus -45.2097 -4.82908 85.0224
lradius 21.8613
lwrist -18.7171
lhand -10.9414 -23.1927
lfingers 7.12502
lthumb 15.0769 6.23826
rfemur 24.3888 3.15102 18.6223
rtibia 23.8642
rfoot -4.95997 -6.68079
rtoes 11.7422
lfemur -8.7005 4.29748 -16.4847
ltibia 7.07665
lfoot 2.06495 4.78553
ltoes 17.6719
495
root 0.853676 16.9401 0.81135 354.381 85.1305 357.334
lowerback 4.29615 4.18867 -0.260648
upperback -0.391516 5.54188 -1.47115
thorax -2.68197 2.76028 -1.72409
lowerneck -23.1395 -0.384427 1.46042
upperneck 14.6095 -1.23903 1.25191
head 8.31798 -0.356403 0.0222049
rclavicle -4.72983e-014 1.11319e-014
rhumerus -36.2828 26.7758 -98.5224
rradius 49.2809
rwrist -6.15341
rhand -8.89763 -31.2555
rfingers 7.12502
rthumb 17.045 -60.5277
lclavicle -4.72983e-014 1.11319e-014
lhumerus -44.6378 -4.70133 85.0195
lradius 21.6369
lwrist -19.4269
lhand -11.0473 -23.2433
lfingers 7.12502
lthumb 14.975 6.19526
rfemur 23.8898 3.04811 18.347
rtibia 25.521
rfoot -3.87217 -7.28146
rtoes 12.9588
lfemur -7.86546 4.52676 -16.7626
ltibia 6.87773
lfoot 1.76777 4.3639
ltoes 17.7902
496
root 1.00446 16.9658 0.777311 354.859 85.1678 357.967
lowerback 4.51751 4.15158 -0.335173
upperback -0.501899 5.48477 -1.44761
thorax -2.93051 2.73054 -1.6799
lowerneck -23.1796 -0.357951 1.48354
upperneck 14.9294 -1.22829 1.30536
head 8.4344 -0.339838 0.0377178
rclavicle 5.50882e-014 -1.90833e-014
rhumerus -36.8856 26.4878 -98.8146
rradius 48.2103
rwrist -5.72918
rhand -9.01685 -30.9423
rfingers 7.12502
rthumb 16.9302 -60.2244
lclavicle 5.50882e-014 -1.90833e-014
lhumerus -44.0847 -4.33477 84.768
lradius 21.2991
lwrist -20.4239
lhand -11.1318 -23.283
lfingers 7.12502
lthumb 14.8935 6.16161
rfemur 23.2334 3.10047 18.2448
rtibia 27.3398
rfoot -2.45125 -8.21998
rtoes 15.003
lfemur -6.9909 4.7495 -16.9474
ltibia 6.64656
lfoot 1.50969 3.93256
ltoes 18.5909
497
root 1.16118 16.989 0.743911 358.301 85.2075 361.61
lowerback 4.6502 4.10913 -0.60701
upperback -0.564491 5.40918 -1.53002
thorax -3.08847 2.6959 -1.62399
lowerneck -23.1947 -0.273855 1.56288
upperneck 15.3303 -1.15371 1.33557
head 8.57435 -0.291221 0.0451808
rclavicle -5.25537e-014 6.36111e-015
rhumerus -37.5722 26.0623 -99.1323
rradius 47.3546
rwrist -5.57443
rhand -9.38317 -30.9998
rfingers 7.12502
rthumb 16.5776 -60.3117
lclavicle -5.25537e-014 6.36111e-015
lhumerus -43.5388 -4.07655 84.5378
lradius 21.0901
lwrist -21.3112
lhand -11.1126 -23.2023
lfingers 7.12502
lthumb 14.912 6.24093
rfemur 22.7595 2.9669 17.6725
rtibia 28.8349
rfoot -0.789896 -8.63069
rtoes 17.5564
lfemur -6.02351 5.06882 -17.4314
ltibia 6.37558
lfoot 1.25705 3.41114
ltoes 18.6994
